<svg width="1557" height="956" viewBox="0 0 1557 956" fill="none" xmlns="http://www.w3.org/2000/svg">
<path d="M136.631 176.205C127.758 173.526 120.895 172.857 105.995 173.024C95.4481 173.024 84.9011 173.694 82.5574 174.531C80.2136 175.201 76.5306 176.373 74.1868 176.875C71.8431 177.377 68.8297 178.549 67.4904 179.386C65.314 180.726 65.9837 182.4 71.006 189.934C74.5217 194.79 79.544 203.998 82.5574 210.528C85.4034 217.057 88.4168 223.252 88.919 224.424C89.7561 226.098 94.611 226.768 106.665 226.935C119.89 227.27 123.406 226.768 124.578 224.759C125.247 223.42 128.261 217.057 131.107 210.528C133.953 203.998 138.975 195.292 142.156 190.771C145.337 186.418 147.848 182.233 147.848 181.228C147.848 180.223 142.825 178.047 136.631 176.205Z" fill="url(#paint0_linear_186_553)"/>
<path d="M175.471 196.129C170.951 192.613 166.598 189.599 165.928 189.599C165.426 189.599 162.245 193.115 159.064 197.468C155.716 201.989 151.196 209.691 148.685 214.713C146.174 219.736 143.997 225.596 143.83 227.773C143.663 230.954 145.002 232.126 151.196 234.302C155.381 235.809 161.073 238.32 163.752 239.827C166.43 241.502 171.118 244.18 174.131 245.855C176.977 247.696 179.656 248.701 179.991 248.199C180.326 247.696 182.502 243.176 185.013 238.153C187.524 233.13 191.04 226.601 192.881 223.922L196.397 218.899C186.687 206.342 180.158 199.812 175.471 196.129Z" fill="url(#paint1_linear_186_553)"/>
<path d="M53.93 197.468C51.2515 194.12 47.9032 191.274 46.3965 191.274C44.8898 191.274 37.6912 197.301 30.4925 204.668L17.267 218.062C24.6331 229.112 28.4835 235.642 30.6599 239.827C32.6688 244.013 34.6778 247.696 35.0126 248.199C35.3474 248.701 38.5282 247.027 41.8765 244.683C45.3921 242.339 51.7537 238.823 56.2738 236.814C60.6265 234.805 65.314 233.13 66.6533 233.13C67.9926 233.13 69.6667 232.126 70.169 230.954C70.6712 229.949 68.3274 223.252 64.9792 216.388C61.631 209.523 56.6086 200.984 53.93 197.468Z" fill="url(#paint2_linear_186_553)"/>
<path d="M10.738 241.502L7.55716 237.316L3.70667 247.362C0.525852 256.068 -0.143763 260.421 0.0236485 280.01C0.0236485 298.092 0.525872 304.454 3.20445 311.653C4.87857 316.676 7.22231 321.029 8.05937 321.364C8.89643 321.699 11.0728 319.02 12.9143 315.672C14.5884 312.156 17.0996 305.459 18.2715 300.938C19.6108 296.25 20.6152 286.874 20.6152 280.01C20.6152 271.973 19.4433 263.602 17.0996 256.57C15.258 250.543 12.4121 243.846 10.738 241.502Z" fill="url(#paint3_linear_186_553)"/>
<path d="M211.464 251.547C209.455 245.52 207.279 239.995 206.609 239.325C206.107 238.488 203.261 242.339 200.582 247.696C197.569 253.724 195.058 262.263 194.053 269.964C192.881 279.005 193.049 285.535 194.388 293.404C195.56 299.431 198.239 308.305 200.582 312.993C202.926 317.848 205.27 321.866 206.107 321.866C206.777 321.866 209.12 316.007 211.297 308.975C214.31 298.929 215.147 292.064 214.98 279.173C214.98 266.783 213.975 259.584 211.464 251.547Z" fill="url(#paint4_linear_186_553)"/>
<path d="M117.212 246.859C116.04 245.687 111.687 244.683 106.832 244.85C102.312 244.85 97.457 245.52 96.2851 246.19C94.611 247.194 94.4436 249.538 96.1177 258.244C97.1222 264.272 97.6244 278.168 97.457 289.218L96.7873 309.309H116.877C116.207 276.829 116.542 263.267 117.546 258.244C118.551 251.715 118.551 248.366 117.212 246.859Z" fill="url(#paint5_linear_186_553)"/>
<path d="M78.0373 264.104C76.8654 252.552 76.1958 250.71 73.3498 250.375C71.5082 250.208 66.3185 251.715 61.631 253.891C57.1109 255.9 50.4144 260.421 47.0662 263.769C43.5505 267.118 40.2023 271.973 39.7001 274.485C39.0304 277.331 39.7001 281.349 41.3742 284.53C42.8809 287.544 47.2336 292.232 51.2515 294.743C55.1019 297.422 61.4635 300.771 65.4814 302.278C69.3319 303.784 73.6846 305.124 75.0239 305.124C77.0328 305.124 77.7025 302.11 78.5395 291.227C79.0418 283.693 78.8743 271.471 78.0373 264.104Z" fill="url(#paint6_linear_186_553)"/>
<path d="M152.033 254.728C146.508 252.217 141.151 249.873 139.979 249.873C138.808 249.873 137.301 250.877 136.631 251.882C135.962 253.054 135.125 263.937 134.79 275.824C134.455 288.883 134.957 299.431 135.962 302.11L137.803 306.798C150.192 302.445 157.055 298.762 161.241 295.915C165.259 293.236 170.113 288.214 171.788 285.033C173.797 281.349 174.634 277.666 173.964 275.322C173.462 273.313 170.448 268.96 167.602 265.611C164.589 262.263 157.558 257.407 152.033 254.728Z" fill="url(#paint7_linear_186_553)"/>
<path d="M62.9702 321.532C58.4501 319.857 50.5818 316.007 45.0573 312.825C36.6867 307.635 35.18 307.3 34.5103 309.812C34.0081 311.319 32.8363 315.002 31.8318 317.681C30.8273 320.36 28.1487 325.717 25.9724 329.401C23.9635 333.084 21.2849 337.437 20.113 338.944C18.4389 341.288 18.9411 342.962 23.1264 348.822C25.9724 352.84 32.334 359.37 37.3563 363.388L46.564 370.922C54.9345 360.709 60.2917 351.668 64.1421 343.967C67.8252 336.433 70.8386 328.898 70.8386 327.224C70.8386 325.382 68.3274 323.373 62.9702 321.532Z" fill="url(#paint8_linear_186_553)"/>
<path d="M182.335 319.355C179.991 313.83 177.48 309.142 176.81 308.975C176.14 308.807 172.792 310.481 169.611 312.825C166.43 315.002 159.064 318.685 153.372 320.862C147.68 323.038 142.658 326.052 142.156 327.559C141.654 329.066 144.332 336.767 148.35 344.636C152.2 352.506 157.39 361.547 160.069 364.728C162.58 367.909 165.761 370.42 167.1 370.42C168.439 370.42 174.299 366.067 180.158 360.542C185.85 355.184 191.71 348.822 193.049 346.478C195.393 342.292 195.225 341.623 191.04 335.763C188.529 332.247 184.511 324.88 182.335 319.355Z" fill="url(#paint9_linear_186_553)"/>
<path d="M119.89 328.564C118.216 328.564 111.352 328.229 104.488 328.061C94.611 327.726 91.765 328.061 90.7605 330.238C90.091 331.577 87.2457 338.44 84.4002 345.303L84.3989 345.306C81.5529 352.171 75.8609 362.886 71.6757 369.081L64.1421 380.466C71.3408 382.81 76.3632 384.484 80.0462 385.823C84.0641 386.995 94.9458 388 107.669 388C123.071 388 130.939 387.163 137.468 384.986C142.156 383.479 146.508 381.47 147.011 380.466C147.513 379.461 145.002 374.438 141.319 369.081C137.803 363.891 133.45 356.524 131.609 352.84C129.767 349.157 126.921 342.125 125.415 337.27C123.573 331.242 121.899 328.564 119.89 328.564Z" fill="url(#paint10_linear_186_553)"/>
<path d="M1397.63 -69.7948C1388.76 -72.4737 1381.89 -73.1434 1366.99 -72.9759C1356.45 -72.9759 1345.9 -72.3062 1343.56 -71.4691C1341.21 -70.7994 1337.53 -69.6274 1335.19 -69.1251C1332.84 -68.6229 1329.83 -67.4509 1328.49 -66.6137C1326.31 -65.2743 1326.98 -63.6001 1332.01 -56.0658C1335.52 -51.2105 1340.54 -42.002 1343.56 -35.4724C1346.4 -28.9427 1349.42 -22.7479 1349.92 -21.5759C1350.76 -19.9017 1355.61 -19.232 1367.66 -19.0645C1380.89 -18.7297 1384.41 -19.232 1385.58 -21.2411C1386.25 -22.5805 1389.26 -28.9427 1392.11 -35.4724C1394.95 -42.002 1399.97 -50.7082 1403.16 -55.2287C1406.34 -59.5818 1408.85 -63.7675 1408.85 -64.772C1408.85 -65.7766 1403.83 -67.9531 1397.63 -69.7948Z" fill="url(#paint11_linear_186_553)"/>
<path d="M1436.47 -49.8711C1431.95 -53.387 1427.6 -56.4007 1426.93 -56.4007C1426.43 -56.4007 1423.25 -52.8847 1420.06 -48.5316C1416.72 -44.0111 1412.2 -36.3095 1409.68 -31.2867C1407.17 -26.2639 1405 -20.404 1404.83 -18.2274C1404.66 -15.0463 1406 -13.8743 1412.2 -11.6978C1416.38 -10.1909 1422.07 -7.67952 1424.75 -6.17268C1427.43 -4.49841 1432.12 -1.81958 1435.13 -0.145317C1437.98 1.69638 1440.66 2.70094 1440.99 2.19866C1441.33 1.69638 1443.5 -2.82414 1446.01 -7.84695C1448.52 -12.8697 1452.04 -19.3994 1453.88 -22.0782L1457.4 -27.101C1447.69 -39.658 1441.16 -46.1877 1436.47 -49.8711Z" fill="url(#paint12_linear_186_553)"/>
<path d="M1314.93 -48.5316C1312.25 -51.8802 1308.9 -54.7264 1307.4 -54.7264C1305.89 -54.7264 1298.69 -48.6991 1291.49 -41.3323L1278.27 -27.9382C1285.63 -16.888 1289.48 -10.3583 1291.66 -6.17268C1293.67 -1.98701 1295.68 1.69638 1296.01 2.19866C1296.35 2.70094 1299.53 1.02668 1302.88 -1.3173C1306.39 -3.66127 1312.75 -7.17724 1317.27 -9.18636C1321.63 -11.1955 1326.31 -12.8697 1327.65 -12.8697C1328.99 -12.8697 1330.67 -13.8743 1331.17 -15.0463C1331.67 -16.0509 1329.33 -22.7479 1325.98 -29.6124C1322.63 -36.4769 1317.61 -45.0157 1314.93 -48.5316Z" fill="url(#paint13_linear_186_553)"/>
<path d="M1271.74 -4.49841L1268.56 -8.68407L1264.71 1.36153C1261.53 10.0677 1260.86 14.4208 1261.02 34.0097C1261.02 52.0918 1261.53 58.4541 1264.2 65.6534C1265.88 70.6762 1268.22 75.0293 1269.06 75.3642C1269.9 75.699 1272.07 73.0202 1273.91 69.6717C1275.59 66.1557 1278.1 59.4586 1279.27 54.9381C1280.61 50.2501 1281.62 40.8742 1281.62 34.0097C1281.62 25.9733 1280.44 17.6019 1278.1 10.57C1276.26 4.54263 1273.41 -2.15443 1271.74 -4.49841Z" fill="url(#paint14_linear_186_553)"/>
<path d="M1472.46 5.5472C1470.46 -0.480164 1468.28 -6.00525 1467.61 -6.67496C1467.11 -7.51209 1464.26 -3.66128 1461.58 1.69638C1458.57 7.72375 1456.06 16.2625 1455.05 23.9641C1453.88 33.0052 1454.05 39.5348 1455.39 47.4039C1456.56 53.4313 1459.24 62.3049 1461.58 66.9928C1463.93 71.8482 1466.27 75.8664 1467.11 75.8664C1467.78 75.8664 1470.12 70.0065 1472.3 62.9746C1475.31 52.929 1476.15 46.0645 1475.98 33.1726C1475.98 20.783 1474.98 13.5837 1472.46 5.5472Z" fill="url(#paint15_linear_186_553)"/>
<path d="M1378.21 0.859245C1377.04 -0.312737 1372.69 -1.3173 1367.83 -1.14987C1363.31 -1.14987 1358.46 -0.480171 1357.29 0.189537C1355.61 1.1941 1355.44 3.53808 1357.12 12.2443C1358.12 18.2716 1358.62 32.1681 1358.46 43.2182L1357.79 63.3094H1377.88C1377.21 30.8286 1377.54 17.2671 1378.55 12.2443C1379.55 5.71462 1379.55 2.36609 1378.21 0.859245Z" fill="url(#paint16_linear_186_553)"/>
<path d="M1339.04 18.1042C1337.87 6.55176 1337.2 4.71007 1334.35 4.37521C1332.51 4.20779 1327.32 5.71462 1322.63 7.89117C1318.11 9.90029 1311.41 14.4208 1308.07 17.7694C1304.55 21.1179 1301.2 25.9733 1300.7 28.4847C1300.03 31.3309 1300.7 35.3492 1302.37 38.5303C1303.88 41.544 1308.23 46.2319 1312.25 48.7433C1316.1 51.4221 1322.46 54.7707 1326.48 56.2775C1330.33 57.7843 1334.68 59.1238 1336.02 59.1238C1338.03 59.1238 1338.7 56.1101 1339.54 45.2273C1340.04 37.6931 1339.87 25.471 1339.04 18.1042Z" fill="url(#paint17_linear_186_553)"/>
<path d="M1413.03 8.72831C1407.51 6.2169 1402.15 3.87292 1400.98 3.87292C1399.81 3.87292 1398.3 4.87749 1397.63 5.88204C1396.96 7.05403 1396.12 17.9368 1395.79 29.8241C1395.45 42.8834 1395.96 53.4313 1396.96 56.1101L1398.8 60.798C1411.19 56.4449 1418.06 52.7615 1422.24 49.9153C1426.26 47.2365 1431.11 42.2137 1432.79 39.0326C1434.8 35.3492 1435.63 31.6658 1434.96 29.3218C1434.46 27.3127 1431.45 22.9596 1428.6 19.611C1425.59 16.2625 1418.56 11.4071 1413.03 8.72831Z" fill="url(#paint18_linear_186_553)"/>
<path d="M1323.97 75.5316C1319.45 73.8573 1311.58 70.0065 1306.06 66.8254C1297.69 61.6352 1296.18 61.3003 1295.51 63.8117C1295.01 65.3186 1293.84 69.0019 1292.83 71.6808C1291.83 74.3596 1289.15 79.7173 1286.97 83.4007C1284.96 87.084 1282.28 91.4371 1281.11 92.944C1279.44 95.2879 1279.94 96.9622 1284.13 102.822C1286.97 106.84 1293.33 113.37 1298.36 117.388L1307.56 124.922C1315.93 114.709 1321.29 105.668 1325.14 97.9668C1328.83 90.4326 1331.84 82.8984 1331.84 81.2241C1331.84 79.3824 1329.33 77.3733 1323.97 75.5316Z" fill="url(#paint19_linear_186_553)"/>
<path d="M1443.33 73.355C1440.99 67.83 1438.48 63.142 1437.81 62.9746C1437.14 62.8072 1433.79 64.4814 1430.61 66.8254C1427.43 69.0019 1420.06 72.6853 1414.37 74.8619C1408.68 77.0384 1403.66 80.0521 1403.16 81.5589C1402.65 83.0658 1405.33 90.7674 1409.35 98.6365C1413.2 106.506 1418.39 115.547 1421.07 118.728C1423.58 121.909 1426.76 124.42 1428.1 124.42C1429.44 124.42 1435.3 120.067 1441.16 114.542C1446.85 109.184 1452.71 102.822 1454.05 100.478C1456.39 96.2925 1456.23 95.6228 1452.04 89.7629C1449.53 86.2469 1445.51 78.8801 1443.33 73.355Z" fill="url(#paint20_linear_186_553)"/>
<path d="M1380.89 82.5635C1379.22 82.5635 1372.35 82.2287 1365.49 82.0612C1355.61 81.7264 1352.76 82.0612 1351.76 84.2378C1351.09 85.577 1348.25 92.4397 1345.4 99.3032L1345.4 99.3062C1342.55 106.171 1336.86 116.886 1332.68 123.081L1325.14 134.466C1332.34 136.81 1337.36 138.484 1341.05 139.823C1345.06 140.995 1355.95 142 1368.67 142C1384.07 142 1391.94 141.163 1398.47 138.986C1403.16 137.479 1407.51 135.47 1408.01 134.466C1408.51 133.461 1406 128.438 1402.32 123.081C1398.8 117.891 1394.45 110.524 1392.61 106.84C1390.77 103.157 1387.92 96.1251 1386.41 91.2697C1384.57 85.2423 1382.9 82.5635 1380.89 82.5635Z" fill="url(#paint21_linear_186_553)"/>
<path d="M217.95 597.415C211.264 595.397 206.093 594.892 194.866 595.018C186.919 595.018 178.972 595.523 177.206 596.154C175.44 596.658 172.665 597.541 170.899 597.92C169.133 598.298 166.862 599.181 165.853 599.812C164.213 600.821 164.718 602.083 168.502 607.76C171.151 611.418 174.935 618.357 177.206 623.277C179.35 628.197 181.621 632.864 181.999 633.747C182.63 635.009 186.288 635.514 195.371 635.64C205.336 635.892 207.985 635.514 208.868 634C209.372 632.991 211.643 628.197 213.787 623.277C215.932 618.357 219.716 611.797 222.113 608.39C224.509 605.11 226.402 601.957 226.402 601.2C226.402 600.443 222.617 598.803 217.95 597.415Z" fill="url(#paint22_linear_186_553)"/>
<path d="M247.215 612.427C243.809 609.778 240.53 607.507 240.025 607.507C239.647 607.507 237.25 610.157 234.853 613.437C232.33 616.843 228.924 622.646 227.032 626.43C225.14 630.215 223.5 634.631 223.374 636.271C223.248 638.667 224.257 639.551 228.924 641.191C232.078 642.326 236.367 644.218 238.385 645.354C240.403 646.615 243.935 648.634 246.206 649.895C248.35 651.283 250.369 652.04 250.621 651.661C250.873 651.283 252.513 647.877 254.405 644.092C256.297 640.307 258.946 635.387 260.334 633.369L262.983 629.584C255.667 620.123 250.747 615.203 247.215 612.427Z" fill="url(#paint23_linear_186_553)"/>
<path d="M155.636 613.437C153.617 610.914 151.095 608.769 149.959 608.769C148.824 608.769 143.4 613.31 137.976 618.861L128.01 628.954C133.561 637.28 136.462 642.2 138.102 645.354C139.616 648.507 141.129 651.283 141.382 651.661C141.634 652.04 144.031 650.778 146.553 649.012C149.202 647.246 153.996 644.597 157.402 643.083C160.681 641.569 164.213 640.307 165.222 640.307C166.232 640.307 167.493 639.551 167.871 638.667C168.25 637.911 166.484 632.864 163.961 627.692C161.438 622.52 157.654 616.086 155.636 613.437Z" fill="url(#paint24_linear_186_553)"/>
<path d="M123.091 646.615L120.694 643.461L117.793 651.031C115.396 657.591 114.892 660.871 115.018 675.631C115.018 689.255 115.396 694.049 117.415 699.474C118.676 703.258 120.442 706.538 121.073 706.791C121.703 707.043 123.343 705.025 124.731 702.501C125.992 699.852 127.884 694.806 128.767 691.4C129.776 687.868 130.533 680.803 130.533 675.631C130.533 669.575 129.65 663.267 127.884 657.969C126.497 653.427 124.352 648.381 123.091 646.615Z" fill="url(#paint25_linear_186_553)"/>
<path d="M274.336 654.184C272.822 649.643 271.182 645.48 270.678 644.975C270.299 644.344 268.155 647.246 266.136 651.283C263.866 655.824 261.974 662.258 261.217 668.061C260.334 674.874 260.46 679.794 261.469 685.723C262.352 690.264 264.37 696.951 266.136 700.483C267.902 704.141 269.668 707.169 270.299 707.169C270.804 707.169 272.57 702.754 274.21 697.455C276.48 689.886 277.111 684.714 276.985 675C276.985 665.664 276.228 660.24 274.336 654.184Z" fill="url(#paint26_linear_186_553)"/>
<path d="M203.318 650.652C202.435 649.769 199.155 649.012 195.497 649.138C192.091 649.138 188.433 649.643 187.55 650.147C186.288 650.904 186.162 652.671 187.424 659.231C188.18 663.772 188.559 674.243 188.433 682.569L187.928 697.708H203.065C202.561 673.234 202.813 663.015 203.57 659.231C204.327 654.311 204.327 651.787 203.318 650.652Z" fill="url(#paint27_linear_186_553)"/>
<path d="M173.8 663.646C172.917 654.941 172.413 653.554 170.268 653.301C168.881 653.175 164.97 654.311 161.438 655.951C158.032 657.464 152.987 660.871 150.464 663.394C147.815 665.917 145.292 669.575 144.914 671.468C144.409 673.612 144.914 676.64 146.175 679.037C147.31 681.308 150.59 684.84 153.617 686.732C156.519 688.751 161.312 691.274 164.339 692.409C167.241 693.544 170.52 694.554 171.53 694.554C173.043 694.554 173.548 692.283 174.179 684.083C174.557 678.406 174.431 669.197 173.8 663.646Z" fill="url(#paint28_linear_186_553)"/>
<path d="M229.555 656.581C225.392 654.689 221.356 652.923 220.473 652.923C219.59 652.923 218.455 653.68 217.95 654.437C217.445 655.32 216.815 663.52 216.562 672.477C216.31 682.317 216.689 690.264 217.445 692.283L218.833 695.815C228.168 692.535 233.339 689.76 236.493 687.615C239.52 685.597 243.179 681.812 244.44 679.415C245.954 676.64 246.584 673.864 246.08 672.098C245.701 670.584 243.431 667.304 241.286 664.781C239.016 662.258 233.718 658.6 229.555 656.581Z" fill="url(#paint29_linear_186_553)"/>
<path d="M162.447 706.917C159.042 705.655 153.113 702.754 148.95 700.357C142.643 696.446 141.508 696.194 141.003 698.086C140.625 699.221 139.742 701.997 138.985 704.015C138.228 706.034 136.21 710.071 134.57 712.846C133.056 715.621 131.038 718.901 130.155 720.037C128.893 721.803 129.272 723.065 132.425 727.48C134.57 730.508 139.363 735.428 143.148 738.455L150.085 744.132C156.393 736.437 160.429 729.625 163.33 723.821C166.105 718.145 168.376 712.468 168.376 711.206C168.376 709.818 166.484 708.305 162.447 706.917Z" fill="url(#paint30_linear_186_553)"/>
<path d="M252.387 705.277C250.621 701.114 248.729 697.581 248.224 697.455C247.72 697.329 245.197 698.591 242.8 700.357C240.403 701.997 234.853 704.772 230.564 706.412C226.275 708.052 222.491 710.323 222.113 711.458C221.734 712.594 223.753 718.397 226.78 724.326C229.681 730.255 233.592 737.068 235.61 739.465C237.502 741.862 239.899 743.754 240.908 743.754C241.917 743.754 246.332 740.474 250.747 736.311C255.036 732.274 259.451 727.48 260.46 725.714C262.226 722.56 262.1 722.055 258.946 717.64C257.054 714.991 254.027 709.44 252.387 705.277Z" fill="url(#paint31_linear_186_553)"/>
<path d="M205.336 712.215C204.074 712.215 198.903 711.963 193.731 711.837C186.288 711.585 184.144 711.837 183.387 713.477C182.882 714.486 180.739 719.657 178.594 724.829L178.594 724.831C176.449 730.003 172.16 738.077 169.007 742.745L163.33 751.323C168.754 753.089 172.539 754.351 175.314 755.36C178.341 756.243 186.541 757 196.127 757C207.733 757 213.661 756.369 218.581 754.729C222.113 753.594 225.392 752.08 225.771 751.323C226.149 750.566 224.257 746.782 221.482 742.745C218.833 738.834 215.553 733.283 214.166 730.508C212.778 727.732 210.634 722.434 209.499 718.775C208.111 714.234 206.849 712.215 205.336 712.215Z" fill="url(#paint32_linear_186_553)"/>
<path d="M1493.94 785.579C1486.8 783.424 1481.28 782.885 1469.29 783.019C1460.8 783.019 1452.32 783.558 1450.43 784.232C1448.54 784.771 1445.58 785.714 1443.69 786.118C1441.81 786.522 1439.38 787.465 1438.31 788.139C1436.56 789.216 1437.09 790.564 1441.14 796.626C1443.96 800.533 1448.01 807.943 1450.43 813.197C1452.72 818.451 1455.14 823.435 1455.55 824.378C1456.22 825.726 1460.13 826.265 1469.83 826.399C1480.47 826.669 1483.3 826.265 1484.24 824.648C1484.78 823.57 1487.21 818.451 1489.5 813.197C1491.79 807.943 1495.83 800.937 1498.39 797.3C1500.95 793.797 1502.97 790.429 1502.97 789.621C1502.97 788.812 1498.92 787.061 1493.94 785.579Z" fill="url(#paint33_linear_186_553)"/>
<path d="M1525.19 801.611C1521.56 798.782 1518.05 796.357 1517.51 796.357C1517.11 796.357 1514.55 799.186 1511.99 802.688C1509.3 806.326 1505.66 812.523 1503.64 816.565C1501.62 820.606 1499.87 825.321 1499.73 827.073C1499.6 829.633 1500.68 830.576 1505.66 832.327C1509.03 833.539 1513.61 835.56 1515.76 836.773C1517.92 838.12 1521.69 840.275 1524.12 841.623C1526.41 843.105 1528.56 843.913 1528.83 843.509C1529.1 843.105 1530.85 839.467 1532.87 835.425C1534.89 831.384 1537.72 826.13 1539.2 823.974L1542.03 819.933C1534.22 809.829 1528.96 804.575 1525.19 801.611Z" fill="url(#paint34_linear_186_553)"/>
<path d="M1427.39 802.688C1425.24 799.994 1422.55 797.704 1421.33 797.704C1420.12 797.704 1414.33 802.554 1408.54 808.481L1397.89 819.259C1403.82 828.151 1406.92 833.405 1408.67 836.773C1410.29 840.141 1411.9 843.105 1412.17 843.509C1412.44 843.913 1415 842.566 1417.7 840.68C1420.52 838.793 1425.64 835.964 1429.28 834.348C1432.78 832.731 1436.56 831.384 1437.63 831.384C1438.71 831.384 1440.06 830.576 1440.46 829.633C1440.87 828.824 1438.98 823.435 1436.29 817.912C1433.59 812.388 1429.55 805.518 1427.39 802.688Z" fill="url(#paint35_linear_186_553)"/>
<path d="M1392.64 838.12L1390.08 834.752L1386.98 842.835C1384.42 849.841 1383.88 853.343 1384.02 869.106C1384.02 883.655 1384.42 888.775 1386.58 894.568C1387.93 898.609 1389.81 902.112 1390.48 902.381C1391.16 902.651 1392.91 900.495 1394.39 897.801C1395.74 894.972 1397.76 889.583 1398.7 885.946C1399.78 882.173 1400.59 874.629 1400.59 869.106C1400.59 862.639 1399.65 855.903 1397.76 850.245C1396.28 845.395 1393.99 840.006 1392.64 838.12Z" fill="url(#paint36_linear_186_553)"/>
<path d="M1554.15 846.203C1552.54 841.353 1550.79 836.907 1550.25 836.369C1549.84 835.695 1547.55 838.793 1545.4 843.105C1542.97 847.954 1540.95 854.825 1540.15 861.022C1539.2 868.297 1539.34 873.551 1540.41 879.883C1541.36 884.733 1543.51 891.873 1545.4 895.645C1547.28 899.552 1549.17 902.786 1549.84 902.786C1550.38 902.786 1552.27 898.07 1554.02 892.412C1556.44 884.329 1557.12 878.805 1556.98 868.432C1556.98 858.463 1556.18 852.67 1554.15 846.203Z" fill="url(#paint37_linear_186_553)"/>
<path d="M1478.31 842.431C1477.37 841.488 1473.87 840.68 1469.96 840.814C1466.33 840.814 1462.42 841.353 1461.48 841.892C1460.13 842.7 1459.99 844.586 1461.34 851.592C1462.15 856.442 1462.55 867.624 1462.42 876.515L1461.88 892.682H1478.04C1477.51 866.546 1477.78 855.633 1478.58 851.592C1479.39 846.338 1479.39 843.643 1478.31 842.431Z" fill="url(#paint38_linear_186_553)"/>
<path d="M1446.79 856.307C1445.85 847.011 1445.31 845.529 1443.02 845.26C1441.54 845.125 1437.36 846.338 1433.59 848.089C1429.95 849.706 1424.57 853.343 1421.87 856.038C1419.04 858.732 1416.35 862.639 1415.94 864.66C1415.41 866.95 1415.94 870.183 1417.29 872.743C1418.5 875.168 1422.01 878.94 1425.24 880.961C1428.34 883.116 1433.46 885.811 1436.69 887.023C1439.79 888.236 1443.29 889.314 1444.37 889.314C1445.98 889.314 1446.52 886.889 1447.2 878.132C1447.6 872.069 1447.47 862.235 1446.79 856.307Z" fill="url(#paint39_linear_186_553)"/>
<path d="M1506.33 848.763C1501.89 846.742 1497.58 844.856 1496.63 844.856C1495.69 844.856 1494.48 845.664 1493.94 846.473C1493.4 847.416 1492.73 856.172 1492.46 865.738C1492.19 876.246 1492.59 884.733 1493.4 886.889L1494.88 890.661C1504.85 887.158 1510.37 884.194 1513.74 881.904C1516.98 879.748 1520.88 875.707 1522.23 873.147C1523.85 870.183 1524.52 867.219 1523.98 865.333C1523.58 863.717 1521.15 860.214 1518.86 857.52C1516.44 854.825 1510.78 850.918 1506.33 848.763Z" fill="url(#paint40_linear_186_553)"/>
<path d="M1434.67 902.516C1431.03 901.169 1424.7 898.07 1420.26 895.511C1413.52 891.334 1412.31 891.065 1411.77 893.086C1411.36 894.298 1410.42 897.262 1409.61 899.418C1408.81 901.573 1406.65 905.884 1404.9 908.848C1403.28 911.812 1401.13 915.315 1400.18 916.527C1398.84 918.413 1399.24 919.76 1402.61 924.475C1404.9 927.709 1410.02 932.963 1414.06 936.196L1421.47 942.259C1428.2 934.041 1432.51 926.766 1435.61 920.569C1438.58 914.506 1441 908.444 1441 907.097C1441 905.615 1438.98 903.998 1434.67 902.516Z" fill="url(#paint41_linear_186_553)"/>
<path d="M1530.72 900.765C1528.83 896.319 1526.81 892.547 1526.27 892.412C1525.73 892.277 1523.04 893.625 1520.48 895.511C1517.92 897.262 1511.99 900.226 1507.41 901.977C1502.83 903.729 1498.79 906.154 1498.39 907.366C1497.98 908.579 1500.14 914.776 1503.37 921.107C1506.47 927.439 1510.64 934.714 1512.8 937.274C1514.82 939.834 1517.38 941.854 1518.46 941.854C1519.53 941.854 1524.25 938.352 1528.96 933.906C1533.54 929.595 1538.26 924.475 1539.34 922.589C1541.22 919.221 1541.09 918.683 1537.72 913.967C1535.7 911.138 1532.47 905.211 1530.72 900.765Z" fill="url(#paint42_linear_186_553)"/>
<path d="M1480.47 908.174C1479.12 908.174 1473.6 907.905 1468.08 907.77C1460.13 907.501 1457.84 907.77 1457.03 909.522C1456.49 910.599 1454.2 916.121 1451.91 921.644L1451.91 921.646C1449.62 927.17 1445.04 935.792 1441.67 940.777L1435.61 949.938C1441.4 951.824 1445.45 953.171 1448.41 954.249C1451.64 955.192 1460.4 956 1470.64 956C1483.03 956 1489.36 955.326 1494.61 953.575C1498.39 952.363 1501.89 950.746 1502.29 949.938C1502.7 949.129 1500.68 945.088 1497.71 940.777C1494.88 936.6 1491.38 930.673 1489.9 927.709C1488.42 924.745 1486.13 919.087 1484.92 915.18C1483.43 910.33 1482.09 908.174 1480.47 908.174Z" fill="url(#paint43_linear_186_553)"/>
<defs>
<linearGradient id="paint0_linear_186_553" x1="187" y1="207" x2="44.5" y2="367.5" gradientUnits="userSpaceOnUse">
<stop stop-color="#8B330D" stop-opacity="0"/>
<stop offset="0.774038" stop-color="#F15817" stop-opacity="0.15"/>
</linearGradient>
<linearGradient id="paint1_linear_186_553" x1="187" y1="207" x2="44.5" y2="367.5" gradientUnits="userSpaceOnUse">
<stop stop-color="#8B330D" stop-opacity="0"/>
<stop offset="0.774038" stop-color="#F15817" stop-opacity="0.15"/>
</linearGradient>
<linearGradient id="paint2_linear_186_553" x1="187" y1="207" x2="44.5" y2="367.5" gradientUnits="userSpaceOnUse">
<stop stop-color="#8B330D" stop-opacity="0"/>
<stop offset="0.774038" stop-color="#F15817" stop-opacity="0.15"/>
</linearGradient>
<linearGradient id="paint3_linear_186_553" x1="187" y1="207" x2="44.5" y2="367.5" gradientUnits="userSpaceOnUse">
<stop stop-color="#8B330D" stop-opacity="0"/>
<stop offset="0.774038" stop-color="#F15817" stop-opacity="0.15"/>
</linearGradient>
<linearGradient id="paint4_linear_186_553" x1="187" y1="207" x2="44.5" y2="367.5" gradientUnits="userSpaceOnUse">
<stop stop-color="#8B330D" stop-opacity="0"/>
<stop offset="0.774038" stop-color="#F15817" stop-opacity="0.15"/>
</linearGradient>
<linearGradient id="paint5_linear_186_553" x1="187" y1="207" x2="44.5" y2="367.5" gradientUnits="userSpaceOnUse">
<stop stop-color="#8B330D" stop-opacity="0"/>
<stop offset="0.774038" stop-color="#F15817" stop-opacity="0.15"/>
</linearGradient>
<linearGradient id="paint6_linear_186_553" x1="187" y1="207" x2="44.5" y2="367.5" gradientUnits="userSpaceOnUse">
<stop stop-color="#8B330D" stop-opacity="0"/>
<stop offset="0.774038" stop-color="#F15817" stop-opacity="0.15"/>
</linearGradient>
<linearGradient id="paint7_linear_186_553" x1="187" y1="207" x2="44.5" y2="367.5" gradientUnits="userSpaceOnUse">
<stop stop-color="#8B330D" stop-opacity="0"/>
<stop offset="0.774038" stop-color="#F15817" stop-opacity="0.15"/>
</linearGradient>
<linearGradient id="paint8_linear_186_553" x1="187" y1="207" x2="44.5" y2="367.5" gradientUnits="userSpaceOnUse">
<stop stop-color="#8B330D" stop-opacity="0"/>
<stop offset="0.774038" stop-color="#F15817" stop-opacity="0.15"/>
</linearGradient>
<linearGradient id="paint9_linear_186_553" x1="187" y1="207" x2="44.5" y2="367.5" gradientUnits="userSpaceOnUse">
<stop stop-color="#8B330D" stop-opacity="0"/>
<stop offset="0.774038" stop-color="#F15817" stop-opacity="0.15"/>
</linearGradient>
<linearGradient id="paint10_linear_186_553" x1="187" y1="207" x2="44.5" y2="367.5" gradientUnits="userSpaceOnUse">
<stop stop-color="#8B330D" stop-opacity="0"/>
<stop offset="0.774038" stop-color="#F15817" stop-opacity="0.15"/>
</linearGradient>
<linearGradient id="paint11_linear_186_553" x1="1448" y1="-39" x2="1305.5" y2="121.5" gradientUnits="userSpaceOnUse">
<stop stop-color="#8B330D" stop-opacity="0"/>
<stop offset="0.774038" stop-color="#F15817" stop-opacity="0.15"/>
</linearGradient>
<linearGradient id="paint12_linear_186_553" x1="1448" y1="-39" x2="1305.5" y2="121.5" gradientUnits="userSpaceOnUse">
<stop stop-color="#8B330D" stop-opacity="0"/>
<stop offset="0.774038" stop-color="#F15817" stop-opacity="0.15"/>
</linearGradient>
<linearGradient id="paint13_linear_186_553" x1="1448" y1="-39" x2="1305.5" y2="121.5" gradientUnits="userSpaceOnUse">
<stop stop-color="#8B330D" stop-opacity="0"/>
<stop offset="0.774038" stop-color="#F15817" stop-opacity="0.15"/>
</linearGradient>
<linearGradient id="paint14_linear_186_553" x1="1448" y1="-39" x2="1305.5" y2="121.5" gradientUnits="userSpaceOnUse">
<stop stop-color="#8B330D" stop-opacity="0"/>
<stop offset="0.774038" stop-color="#F15817" stop-opacity="0.15"/>
</linearGradient>
<linearGradient id="paint15_linear_186_553" x1="1448" y1="-39" x2="1305.5" y2="121.5" gradientUnits="userSpaceOnUse">
<stop stop-color="#8B330D" stop-opacity="0"/>
<stop offset="0.774038" stop-color="#F15817" stop-opacity="0.15"/>
</linearGradient>
<linearGradient id="paint16_linear_186_553" x1="1448" y1="-39" x2="1305.5" y2="121.5" gradientUnits="userSpaceOnUse">
<stop stop-color="#8B330D" stop-opacity="0"/>
<stop offset="0.774038" stop-color="#F15817" stop-opacity="0.15"/>
</linearGradient>
<linearGradient id="paint17_linear_186_553" x1="1448" y1="-39" x2="1305.5" y2="121.5" gradientUnits="userSpaceOnUse">
<stop stop-color="#8B330D" stop-opacity="0"/>
<stop offset="0.774038" stop-color="#F15817" stop-opacity="0.15"/>
</linearGradient>
<linearGradient id="paint18_linear_186_553" x1="1448" y1="-39" x2="1305.5" y2="121.5" gradientUnits="userSpaceOnUse">
<stop stop-color="#8B330D" stop-opacity="0"/>
<stop offset="0.774038" stop-color="#F15817" stop-opacity="0.15"/>
</linearGradient>
<linearGradient id="paint19_linear_186_553" x1="1448" y1="-39" x2="1305.5" y2="121.5" gradientUnits="userSpaceOnUse">
<stop stop-color="#8B330D" stop-opacity="0"/>
<stop offset="0.774038" stop-color="#F15817" stop-opacity="0.15"/>
</linearGradient>
<linearGradient id="paint20_linear_186_553" x1="1448" y1="-39" x2="1305.5" y2="121.5" gradientUnits="userSpaceOnUse">
<stop stop-color="#8B330D" stop-opacity="0"/>
<stop offset="0.774038" stop-color="#F15817" stop-opacity="0.15"/>
</linearGradient>
<linearGradient id="paint21_linear_186_553" x1="1448" y1="-39" x2="1305.5" y2="121.5" gradientUnits="userSpaceOnUse">
<stop stop-color="#8B330D" stop-opacity="0"/>
<stop offset="0.774038" stop-color="#F15817" stop-opacity="0.15"/>
</linearGradient>
<linearGradient id="paint22_linear_186_553" x1="255.902" y1="620.619" x2="148.53" y2="741.553" gradientUnits="userSpaceOnUse">
<stop stop-color="#8B330D" stop-opacity="0"/>
<stop offset="0.774038" stop-color="#F15817" stop-opacity="0.15"/>
</linearGradient>
<linearGradient id="paint23_linear_186_553" x1="255.902" y1="620.619" x2="148.53" y2="741.553" gradientUnits="userSpaceOnUse">
<stop stop-color="#8B330D" stop-opacity="0"/>
<stop offset="0.774038" stop-color="#F15817" stop-opacity="0.15"/>
</linearGradient>
<linearGradient id="paint24_linear_186_553" x1="255.902" y1="620.619" x2="148.53" y2="741.553" gradientUnits="userSpaceOnUse">
<stop stop-color="#8B330D" stop-opacity="0"/>
<stop offset="0.774038" stop-color="#F15817" stop-opacity="0.15"/>
</linearGradient>
<linearGradient id="paint25_linear_186_553" x1="255.902" y1="620.619" x2="148.53" y2="741.553" gradientUnits="userSpaceOnUse">
<stop stop-color="#8B330D" stop-opacity="0"/>
<stop offset="0.774038" stop-color="#F15817" stop-opacity="0.15"/>
</linearGradient>
<linearGradient id="paint26_linear_186_553" x1="255.902" y1="620.619" x2="148.53" y2="741.553" gradientUnits="userSpaceOnUse">
<stop stop-color="#8B330D" stop-opacity="0"/>
<stop offset="0.774038" stop-color="#F15817" stop-opacity="0.15"/>
</linearGradient>
<linearGradient id="paint27_linear_186_553" x1="255.902" y1="620.619" x2="148.53" y2="741.553" gradientUnits="userSpaceOnUse">
<stop stop-color="#8B330D" stop-opacity="0"/>
<stop offset="0.774038" stop-color="#F15817" stop-opacity="0.15"/>
</linearGradient>
<linearGradient id="paint28_linear_186_553" x1="255.902" y1="620.619" x2="148.53" y2="741.553" gradientUnits="userSpaceOnUse">
<stop stop-color="#8B330D" stop-opacity="0"/>
<stop offset="0.774038" stop-color="#F15817" stop-opacity="0.15"/>
</linearGradient>
<linearGradient id="paint29_linear_186_553" x1="255.902" y1="620.619" x2="148.53" y2="741.553" gradientUnits="userSpaceOnUse">
<stop stop-color="#8B330D" stop-opacity="0"/>
<stop offset="0.774038" stop-color="#F15817" stop-opacity="0.15"/>
</linearGradient>
<linearGradient id="paint30_linear_186_553" x1="255.902" y1="620.619" x2="148.53" y2="741.553" gradientUnits="userSpaceOnUse">
<stop stop-color="#8B330D" stop-opacity="0"/>
<stop offset="0.774038" stop-color="#F15817" stop-opacity="0.15"/>
</linearGradient>
<linearGradient id="paint31_linear_186_553" x1="255.902" y1="620.619" x2="148.53" y2="741.553" gradientUnits="userSpaceOnUse">
<stop stop-color="#8B330D" stop-opacity="0"/>
<stop offset="0.774038" stop-color="#F15817" stop-opacity="0.15"/>
</linearGradient>
<linearGradient id="paint32_linear_186_553" x1="255.902" y1="620.619" x2="148.53" y2="741.553" gradientUnits="userSpaceOnUse">
<stop stop-color="#8B330D" stop-opacity="0"/>
<stop offset="0.774038" stop-color="#F15817" stop-opacity="0.15"/>
</linearGradient>
<linearGradient id="paint33_linear_186_553" x1="1534.47" y1="810.358" x2="1419.81" y2="939.505" gradientUnits="userSpaceOnUse">
<stop stop-color="#8B330D" stop-opacity="0"/>
<stop offset="0.774038" stop-color="#F15817" stop-opacity="0.15"/>
</linearGradient>
<linearGradient id="paint34_linear_186_553" x1="1534.47" y1="810.358" x2="1419.81" y2="939.505" gradientUnits="userSpaceOnUse">
<stop stop-color="#8B330D" stop-opacity="0"/>
<stop offset="0.774038" stop-color="#F15817" stop-opacity="0.15"/>
</linearGradient>
<linearGradient id="paint35_linear_186_553" x1="1534.47" y1="810.358" x2="1419.81" y2="939.505" gradientUnits="userSpaceOnUse">
<stop stop-color="#8B330D" stop-opacity="0"/>
<stop offset="0.774038" stop-color="#F15817" stop-opacity="0.15"/>
</linearGradient>
<linearGradient id="paint36_linear_186_553" x1="1534.47" y1="810.358" x2="1419.81" y2="939.505" gradientUnits="userSpaceOnUse">
<stop stop-color="#8B330D" stop-opacity="0"/>
<stop offset="0.774038" stop-color="#F15817" stop-opacity="0.15"/>
</linearGradient>
<linearGradient id="paint37_linear_186_553" x1="1534.47" y1="810.358" x2="1419.81" y2="939.505" gradientUnits="userSpaceOnUse">
<stop stop-color="#8B330D" stop-opacity="0"/>
<stop offset="0.774038" stop-color="#F15817" stop-opacity="0.15"/>
</linearGradient>
<linearGradient id="paint38_linear_186_553" x1="1534.47" y1="810.358" x2="1419.81" y2="939.505" gradientUnits="userSpaceOnUse">
<stop stop-color="#8B330D" stop-opacity="0"/>
<stop offset="0.774038" stop-color="#F15817" stop-opacity="0.15"/>
</linearGradient>
<linearGradient id="paint39_linear_186_553" x1="1534.47" y1="810.358" x2="1419.81" y2="939.505" gradientUnits="userSpaceOnUse">
<stop stop-color="#8B330D" stop-opacity="0"/>
<stop offset="0.774038" stop-color="#F15817" stop-opacity="0.15"/>
</linearGradient>
<linearGradient id="paint40_linear_186_553" x1="1534.47" y1="810.358" x2="1419.81" y2="939.505" gradientUnits="userSpaceOnUse">
<stop stop-color="#8B330D" stop-opacity="0"/>
<stop offset="0.774038" stop-color="#F15817" stop-opacity="0.15"/>
</linearGradient>
<linearGradient id="paint41_linear_186_553" x1="1534.47" y1="810.358" x2="1419.81" y2="939.505" gradientUnits="userSpaceOnUse">
<stop stop-color="#8B330D" stop-opacity="0"/>
<stop offset="0.774038" stop-color="#F15817" stop-opacity="0.15"/>
</linearGradient>
<linearGradient id="paint42_linear_186_553" x1="1534.47" y1="810.358" x2="1419.81" y2="939.505" gradientUnits="userSpaceOnUse">
<stop stop-color="#8B330D" stop-opacity="0"/>
<stop offset="0.774038" stop-color="#F15817" stop-opacity="0.15"/>
</linearGradient>
<linearGradient id="paint43_linear_186_553" x1="1534.47" y1="810.358" x2="1419.81" y2="939.505" gradientUnits="userSpaceOnUse">
<stop stop-color="#8B330D" stop-opacity="0"/>
<stop offset="0.774038" stop-color="#F15817" stop-opacity="0.15"/>
</linearGradient>
</defs>
</svg>
